<svg xmlns="http://www.w3.org/2000/svg" viewBox="0 0 120 120" fill="none">
  <rect width="120" height="120" fill="#0d0d0d"/>
  <rect x="4" y="4" width="112" height="112" fill="#1a1a1a" stroke="#333" stroke-width="2"/>
  <!-- Rainbow pixel face -->
  <rect x="36" y="28" width="48" height="8" fill="#e74c3c"/>
  <rect x="32" y="36" width="56" height="8" fill="#e67e22"/>
  <rect x="28" y="44" width="64" height="8" fill="#f1c40f"/>
  <rect x="28" y="52" width="64" height="8" fill="#2ecc71"/>
  <rect x="32" y="60" width="56" height="8" fill="#3498db"/>
  <rect x="36" y="68" width="48" height="8" fill="#9b59b6"/>
  <!-- Eyes -->
  <rect x="40" y="46" width="8" height="8" fill="#111"/>
  <rect x="72" y="46" width="8" height="8" fill="#111"/>
  <!-- Smile -->
  <rect x="44" y="62" width="32" height="4" fill="#111"/>
  <rect x="48" y="66" width="24" height="4" fill="#111"/>
  <!-- Crown -->
  <rect x="44" y="20" width="8" height="8" fill="#f1c40f"/>
  <rect x="56" y="16" width="8" height="12" fill="#f1c40f"/>
  <rect x="68" y="20" width="8" height="8" fill="#f1c40f"/>
  <!-- Text -->
  <text x="60" y="92" text-anchor="middle" fill="#fff" font-family="monospace" font-size="8" font-weight="bold">MISFITS</text>
  <text x="60" y="104" text-anchor="middle" fill="#fff" font-family="monospace" font-size="7" font-weight="bold">SMP</text>
</svg>
