<svg width="24" height="24" viewBox="0 0 24 24" fill="none" xmlns="http://www.w3.org/2000/svg">
<path d="M10 8.5H14V9.5H15V14.5H10V13.5H9V10.5H10V8.5Z" fill="black"/>
<path fill-rule="evenodd" clip-rule="evenodd" d="M8 3.5V4.5H6V5.5H5V6.5H4V7.5H3V9.5H2V14.5H3V15.5H4V16.5H5V17.5H6V18.5H7V19.5H9V20.5H15V19.5H17V18.5H19V17.5H20V16.5H21V15.5H22V8.5H21V7.5H20V6.5H19V5.5H18V4.5H16V3.5H8ZM14 15.5V16.5H10V15.5H9V14.5H8V12.5H7V11.5H8V8.5H9V7.5H12V6.5H13V7.5H15V8.5H16V9.5H17V13.5H16V15.5H14Z" fill="black"/>
</svg>
